<svg xmlns="http://www.w3.org/2000/svg" viewBox="150 150 980 980">
    <path d="M 343.355 245.88 L 630 250 C 1170 250 1170 1020 630 1020 L 350 1020 L 350 1000 L 380 970.2 L 630 970 C 1100 970 1100 300 630 300 L 342.384 297.555 L 343.355 245.88 Z" fill="#000"/>
    

    <path d="M 450 331.5 L 650 331.6 C 947.801 350.963 947.915 670.221 914.3 748 L 891 748 C 891 748 843.3 925 650 925 L 414 926 L 440.202 900 L 650 900 C 960 888.406 943.58 384.471 640.78 384.494 L 603.027 422.695 L 504.722 422.498 L 504 572 L 257.309 572.64 C 237.489 572.415 239.953 549.676 256.881 549.68 L 450 549 L 450 331.5 Z" fill="#000"/>

    <path d="M 594.023 443.074 L 640 443 C 877.567 438.701 902.412 849.257 640 867.4 L 468.28 867.933 L 525.6 809 L 640 808.5 C 796.675 809.339 808.035 507.111 640 497 L 545 497 L 594 443 L 594.023 443.074 Z" fill="#000"/>

    <path d="M 342.384 715.96 L 402.275 715.623 C 402.275 715.623 403.297 899.853 403.041 903.476 C 401.061 905.476 377.902 931.046 376.662 933.316 L 341.245 933.765 L 341.8 845 L 300 845 C 284.28 844.724 281.026 824.942 300 822.463 L 336.19 822.67 C 342.03 822.61 342.384 822.948 346.96 819.68 C 346.96 819.68 394.95 767.73 392.62 767.88 L 255 767 C 238.536 768.205 237.11 742.343 255 743 L 342.384 742.57 L 342.384 715.96 Z" fill="#000"/>
    

    <path d="M 403.01 331.5 L 403 420 L 342.4 420 L 342.384 331.5 L 403.01 331.5 Z" fill="#000"/>

    <path d="M 304.99 345 C 321.646 345.22 324.407 369.229 304.99 370 C 289.833 370.602 285.634 345.979 304.99 345 Z" fill="#000"/>

    <path d="M 304.99 272 C 321.646 272.22 324.407 296.229 304.99 297 C 289.833 297.602 285.634 272.979 304.99 272 Z" fill="#000"/>

    <path d="M 304.99 905 C 321.646 905.22 324.407 929.229 304.99 930 C 289.833 930.602 285.634 905.979 304.99 905 Z" fill="#000"/>
    
    <path d="M 305.99 971 C 322.646 971.22 325.407 995.229 305.99 996 C 290.833 996.602 286.634 971.979 305.99 971 Z" fill="#000"/>

    <path d="M 308.01 664.618 503.75 663.81 504.418 796.282 443.676 857.757 444.122 689.088 308 688.68 C 288.224 687.798 287.772 665.409 308.01 664.618" fill="#000" style=""></path>
    <path d="M 254.97 445.75 403.01 446.114 403 517.01 340.774 516.768 340.774 469.879 254.902 469.509 C 238.994 469.25 237.601 445.565 254.97 445.75 " fill="#000" style=""></path>
    <path d="M 287.86 607.75 503.885 607.85 504 631.92 287.461 631.63 C 268.068 631.49 267.943 607.494 287.86 607.75" fill="#000" style=""></path>

    <style>
        path { fill: #000; }
        @media (prefers-color-scheme: dark) {
            path { fill: #fff; }
        }
    </style>
</svg>