<svg xmlns="http://www.w3.org/2000/svg" viewBox="150 150 980 980"><path d="m343 246 287 4c540 0 540 770 0 770H350v-20l30-30h250c470 0 470-670 0-670l-288-2 1-52Z"/><path d="M450 332h200c298 19 298 338 264 416h-23s-48 177-241 177l-236 1 26-26h210c310-12 294-516-9-516l-38 39-98-1-1 150-247 1c-20-1-17-23 0-23l193-1V332Z"/><path d="M594 443h46c238-4 262 406 0 424l-172 1 58-59h114c157 0 168-302 0-312h-95l49-54ZM342 716h60l1 187-26 30-36 1 1-89h-42c-16 0-19-20 0-23l36 1c6 0 6 0 11-3 0 0 48-52 46-52l-138-1c-16 1-18-25 0-24h87v-27ZM403 332v88h-61v-88h61ZM305 345c17 0 19 24 0 25-15 1-19-24 0-25ZM305 272c17 0 19 24 0 25-15 1-19-24 0-25ZM305 905c17 0 19 24 0 25-15 1-19-24 0-25ZM306 971c17 0 19 24 0 25-15 1-19-24 0-25Z"/><path d="m308 665 196-1v132l-60 62V689H308c-20-1-20-24 0-24M255 446h148v71h-62v-47h-86c-16-1-17-24 0-24M288 608h216v24H287c-19-1-19-25 1-24"/><style>path{fill:#000}@media (prefers-color-scheme:dark){path{fill:#fff}}</style></svg>